<svg width="105" height="105" viewBox="0 0 105 105" fill="none" xmlns="http://www.w3.org/2000/svg">
	<path
		fill-rule="evenodd"
		clip-rule="evenodd"
		d="M52.4966 24.4605C59.1148 24.4605 64.48 19.0953 64.48 12.4771C64.48 5.85881 59.1148 0.493652 52.4966 0.493652C45.8783 0.493652 40.5132 5.85881 40.5132 12.4771C40.5132 19.0953 45.8783 24.4605 52.4966 24.4605ZM24.2158 36.1744C30.8341 36.1744 36.1992 30.8092 36.1992 24.191C36.1992 17.5727 30.8341 12.2076 24.2158 12.2076C17.5976 12.2076 12.2324 17.5727 12.2324 24.191C12.2324 30.8092 17.5976 36.1744 24.2158 36.1744ZM24.4854 52.4716C24.4854 59.0899 19.1202 64.455 12.502 64.455C5.88371 64.455 0.518555 59.0899 0.518555 52.4716C0.518555 45.8534 5.88371 40.4882 12.502 40.4882C19.1202 40.4882 24.4854 45.8534 24.4854 52.4716ZM24.2158 92.736C30.8341 92.736 36.1992 87.3709 36.1992 80.7526C36.1992 74.1344 30.8341 68.7692 24.2158 68.7692C17.5976 68.7692 12.2324 74.1344 12.2324 80.7526C12.2324 87.3709 17.5976 92.736 24.2158 92.736ZM64.48 92.4664C64.48 99.0846 59.1148 104.45 52.4966 104.45C45.8783 104.45 40.5132 99.0846 40.5132 92.4664C40.5132 85.8481 45.8783 80.483 52.4966 80.483C59.1148 80.483 64.48 85.8481 64.48 92.4664ZM80.7774 92.736C87.3956 92.736 92.7608 87.3709 92.7608 80.7526C92.7608 74.1344 87.3956 68.7692 80.7774 68.7692C74.1591 68.7692 68.7939 74.1344 68.7939 80.7526C68.7939 87.3709 74.1591 92.736 80.7774 92.736ZM104.474 52.4716C104.474 59.0899 99.109 64.455 92.4907 64.455C85.8725 64.455 80.5073 59.0899 80.5073 52.4716C80.5073 45.8534 85.8725 40.4882 92.4907 40.4882C99.109 40.4882 104.474 45.8534 104.474 52.4716ZM80.7774 36.1744C87.3956 36.1744 92.7608 30.8092 92.7608 24.191C92.7608 17.5727 87.3956 12.2076 80.7774 12.2076C74.1591 12.2076 68.7939 17.5727 68.7939 24.191C68.7939 30.8092 74.1591 36.1744 80.7774 36.1744ZM64.48 52.4716C64.48 59.0899 59.1148 64.455 52.4966 64.455C45.8783 64.455 40.5132 59.0899 40.5132 52.4716C40.5132 45.8534 45.8783 40.4882 52.4966 40.4882C59.1148 40.4882 64.48 45.8534 64.48 52.4716Z"
		fill="url(#paint0_linear_352_1825)"
	/>
	<defs>
		<linearGradient
			id="paint0_linear_352_1825"
			x1="70.7968"
			y1="0.493654"
			x2="37.5555"
			y2="96.1882"
			gradientUnits="userSpaceOnUse"
		>
			<stop offset="0.0536157" stop-color="#A7FCCD" />
			<stop offset="1" stop-color="#E2C161" />
		</linearGradient>
	</defs>
</svg>
