<svg
	width="105"
	height="105"
	viewBox="0 0 105 105"
	fill="#231F20"
	xmlns="http://www.w3.org/2000/svg"
>
	<path
		d="M52.4965 24.4605C59.1147 24.4605 64.4799 19.0953 64.4799 12.4771C64.4799 5.85881 59.1147 0.493652 52.4965 0.493652C45.8782 0.493652 40.5131 5.85881 40.5131 12.4771C40.5131 19.0953 45.8782 24.4605 52.4965 24.4605Z"
		fill="#231F20"
	/>
	<path
		d="M24.2158 36.1743C30.834 36.1743 36.1992 30.8092 36.1992 24.1909C36.1992 17.5727 30.834 12.2075 24.2158 12.2075C17.5975 12.2075 12.2324 17.5727 12.2324 24.1909C12.2324 30.8092 17.5975 36.1743 24.2158 36.1743Z"
		fill="#231F20"
	/>
	<path
		d="M12.502 64.4551C19.1203 64.4551 24.4854 59.0899 24.4854 52.4717C24.4854 45.8534 19.1203 40.4883 12.502 40.4883C5.88374 40.4883 0.518585 45.8534 0.518585 52.4717C0.518585 59.0899 5.88374 64.4551 12.502 64.4551Z"
		fill="#231F20"
	/>
	<path
		d="M24.2158 92.7359C30.834 92.7359 36.1992 87.3707 36.1992 80.7525C36.1992 74.1342 30.834 68.769 24.2158 68.769C17.5975 68.769 12.2324 74.1342 12.2324 80.7525C12.2324 87.3707 17.5975 92.7359 24.2158 92.7359Z"
		fill="#231F20"
	/>
	<path
		d="M52.4965 104.45C59.1147 104.45 64.4799 99.0846 64.4799 92.4663C64.4799 85.8481 59.1147 80.4829 52.4965 80.4829C45.8782 80.4829 40.5131 85.8481 40.5131 92.4663C40.5131 99.0846 45.8782 104.45 52.4965 104.45Z"
		fill="#231F20"
	/>
	<path
		d="M80.7776 92.7359C87.3959 92.7359 92.761 87.3707 92.761 80.7525C92.761 74.1342 87.3959 68.769 80.7776 68.769C74.1593 68.769 68.7942 74.1342 68.7942 80.7525C68.7942 87.3707 74.1593 92.7359 80.7776 92.7359Z"
		fill="#231F20"
	/>
	<path
		d="M92.491 64.4551C99.1092 64.4551 104.474 59.0899 104.474 52.4717C104.474 45.8534 99.1092 40.4883 92.491 40.4883C85.8727 40.4883 80.5076 45.8534 80.5076 52.4717C80.5076 59.0899 85.8727 64.4551 92.491 64.4551Z"
		fill="#231F20"
	/>
	<path
		d="M80.7776 36.1743C87.3959 36.1743 92.761 30.8092 92.761 24.1909C92.761 17.5727 87.3959 12.2075 80.7776 12.2075C74.1593 12.2075 68.7942 17.5727 68.7942 24.1909C68.7942 30.8092 74.1593 36.1743 80.7776 36.1743Z"
		fill="#231F20"
	/>
	<path
		d="M52.4965 64.4551C59.1147 64.4551 64.4799 59.0899 64.4799 52.4717C64.4799 45.8534 59.1147 40.4883 52.4965 40.4883C45.8782 40.4883 40.5131 45.8534 40.5131 52.4717C40.5131 59.0899 45.8782 64.4551 52.4965 64.4551Z"
		fill="#231F20"
	/>
</svg>
